# xmcd CD database file
#
# Track frame offsets:
#	150
#	18652
#	31868
#	58273
#	73885
#	87889
#	103631
#	117488
#	135590
#	148497
#	164534
#	179443
#	194620
#	207523
#	230067
#
# Disc length: 3219 seconds
#
# Revision: 0
# Processed by: cddbd v1.5.2PL0 Copyright (c) Steve Scherf et al.
# Submitted via: CDex 1.60beta1-cs1
#
DISCID=ef0c910f
DTITLE=Victor and Léo - Ao Vivo em Uberlândia
DYEAR=2007
DGENRE=Sertanejo
TTITLE0=Fada
TTITLE1=Sinto Falta de Você
TTITLE2=60 Dias Apaixonado - Fazenda São Francisco
TTITLE3=Amigo Apaixonado
TTITLE4=Tem Que Ser Você
TTITLE5=Vida Boa
TTITLE6=Sem Você
TTITLE7=Nova York
TTITLE8=Arapuca
TTITLE9=Lembranças de Amor
TTITLE10=Jogo da Vida
TTITLE11=O Granfino e o Caipira
TTITLE12=Fotos
TTITLE13=Meu Eu Em Você
TTITLE14=Chuva de Bruxaria
EXTD=YEAR: 2007
EXTT0=
EXTT1=
EXTT2=
EXTT3=
EXTT4=
EXTT5=
EXTT6=
EXTT7=
EXTT8=
EXTT9=
EXTT10=
EXTT11=
EXTT12=
EXTT13=
EXTT14=
PLAYORDER=
